<?xml version="1.0" ?><!DOCTYPE svg  PUBLIC '-//W3C//DTD SVG 1.1//EN'  'http://www.w3.org/Graphics/SVG/1.1/DTD/svg11.dtd'><svg enable-background="new 0 0 32 32" height="32px" id="_x3C_Layer_x3E_" version="1.1" viewBox="0 0 32 32" width="32px" xml:space="preserve" xmlns="http://www.w3.org/2000/svg" xmlns:xlink="http://www.w3.org/1999/xlink"><g id="mail"><g><path d="M30.5,29h-29C1.224,29,1,28.776,1,28.5v-16C1,12.224,1.224,12,1.5,12S2,12.224,2,12.5V28h28V8.5    C30,8.224,30.224,8,30.5,8S31,8.224,31,8.5v20C31,28.776,30.776,29,30.5,29z" fill="#FDCA5C"/></g><g><path d="M1.5,27c-0.15,0-0.3-0.068-0.398-0.198c-0.167-0.22-0.124-0.533,0.097-0.7l8.884-6.74    c0.218-0.166,0.532-0.124,0.7,0.097c0.167,0.22,0.124,0.533-0.097,0.7l-8.884,6.74C1.712,26.967,1.605,27,1.5,27z" fill="#FDCA5C"/></g><g><path d="M30.5,27c-0.105,0-0.212-0.033-0.302-0.102l-8.935-6.779c-0.221-0.167-0.264-0.48-0.097-0.7    c0.168-0.221,0.482-0.263,0.7-0.097l8.935,6.779c0.221,0.167,0.264,0.48,0.097,0.7C30.8,26.932,30.65,27,30.5,27z" fill="#FDCA5C"/></g><g><path d="M16,21.253c-0.698,0-1.358-0.229-1.859-0.643L2.723,11.16C1.757,10.362,1,8.974,1,8V6.5    C1,6.224,1.224,6,1.5,6h29C30.776,6,31,6.224,31,6.5V8c0,0.974-0.757,2.362-1.723,3.161l-11.418,9.448    C17.358,21.024,16.698,21.253,16,21.253z M2,7v1c0,0.675,0.636,1.791,1.359,2.39l11.418,9.45c0.645,0.531,1.801,0.532,2.445-0.001    l11.418-9.448C29.364,9.791,30,8.675,30,8V7H2z" fill="#FDCA5C"/></g><g><path d="M16,21.253c-0.698,0-1.358-0.229-1.859-0.643L2.723,11.16C1.757,10.362,1,8.974,1,8V6.5    C1,6.224,1.224,6,1.5,6h29C30.776,6,31,6.224,31,6.5V8c0,0.974-0.757,2.362-1.723,3.161l-11.418,9.448    C17.358,21.024,16.698,21.253,16,21.253z M2,7v1c0,0.675,0.636,1.791,1.359,2.39l11.418,9.45c0.645,0.531,1.801,0.532,2.445-0.001    l11.418-9.448C29.364,9.791,30,8.675,30,8V7H2z" fill="#FDCA5C"/></g></g></svg>