<?xml version="1.0" ?><!DOCTYPE svg  PUBLIC '-//W3C//DTD SVG 1.1//EN'  'http://www.w3.org/Graphics/SVG/1.1/DTD/svg11.dtd'><svg enable-background="new 0 0 32 32" height="32px" id="_x3C_Layer_x3E_" version="1.1" viewBox="0 0 32 32" width="32px" xml:space="preserve" xmlns="http://www.w3.org/2000/svg" xmlns:xlink="http://www.w3.org/1999/xlink"><g id="clock_time"><g><path d="M16,31C7.729,31,1,24.271,1,16c0-3.646,1.323-7.16,3.727-9.895C4.91,5.898,5.226,5.879,5.433,6.06    C5.64,6.242,5.66,6.559,5.479,6.766C3.235,9.317,2,12.597,2,16c0,7.72,6.28,14,14,14s14-6.28,14-14S23.72,2,16,2    c-2.504,0-4.96,0.668-7.103,1.933C8.662,4.07,8.354,3.994,8.213,3.756C8.072,3.519,8.151,3.212,8.39,3.071    C10.686,1.716,13.317,1,16,1c8.271,0,15,6.729,15,15S24.271,31,16,31z" fill="#FDCA5C"/></g><g><path d="M16,28.5C9.107,28.5,3.5,22.893,3.5,16S9.107,3.5,16,3.5S28.5,9.107,28.5,16S22.893,28.5,16,28.5z M16,4.5    C9.659,4.5,4.5,9.659,4.5,16S9.659,27.5,16,27.5S27.5,22.341,27.5,16S22.341,4.5,16,4.5z" fill="#FDCA5C"/></g><g><g><g><path d="M20.75,8.27c-0.13,0-0.26-0.05-0.351-0.14c-0.1-0.1-0.149-0.23-0.149-0.36s0.05-0.26,0.149-0.35      c0.19-0.19,0.521-0.19,0.7,0c0.101,0.09,0.15,0.22,0.15,0.35S21.2,8.03,21.1,8.12C21.01,8.22,20.88,8.27,20.75,8.27z" fill="#FDCA5C"/></g><g><path d="M11.25,24.729c-0.13,0-0.26-0.06-0.351-0.149c-0.1-0.101-0.149-0.23-0.149-0.351      c0-0.13,0.05-0.26,0.14-0.359c0.19-0.181,0.53-0.181,0.71,0c0.101,0.1,0.15,0.229,0.15,0.359c0,0.12-0.05,0.25-0.141,0.351      C11.51,24.67,11.38,24.729,11.25,24.729z" fill="#FDCA5C"/></g></g><g><g><path d="M24.229,11.75c-0.13,0-0.26-0.05-0.35-0.141c-0.1-0.1-0.15-0.229-0.15-0.359s0.051-0.26,0.141-0.351      c0.199-0.199,0.529-0.189,0.71,0c0.09,0.091,0.149,0.221,0.149,0.351s-0.05,0.26-0.149,0.35      C24.49,11.7,24.359,11.75,24.229,11.75z" fill="#FDCA5C"/></g><g><path d="M7.77,21.25c-0.13,0-0.25-0.05-0.35-0.141C7.319,21,7.27,20.87,7.27,20.75c0-0.13,0.05-0.25,0.141-0.351      c0.22-0.199,0.529-0.189,0.72,0c0.09,0.091,0.14,0.221,0.14,0.351s-0.05,0.26-0.14,0.35C8.03,21.2,7.91,21.25,7.77,21.25z" fill="#FDCA5C"/></g></g><g><g><path d="M25.5,16.5c-0.13,0-0.26-0.05-0.351-0.15C25.05,16.26,25,16.13,25,16s0.05-0.26,0.149-0.351      c0.181-0.189,0.511-0.189,0.7-0.01C25.95,15.74,26,15.87,26,16s-0.05,0.26-0.141,0.35C25.76,16.45,25.63,16.5,25.5,16.5z" fill="#FDCA5C"/></g><g><path d="M6.5,16.5c-0.13,0-0.26-0.05-0.351-0.15C6.05,16.26,6,16.13,6,16s0.05-0.26,0.149-0.351      c0.181-0.189,0.511-0.189,0.7-0.01C6.95,15.74,7,15.87,7,16s-0.05,0.26-0.141,0.35C6.76,16.45,6.63,16.5,6.5,16.5z" fill="#FDCA5C"/></g></g><g><g><path d="M24.229,21.25c-0.13,0-0.26-0.05-0.359-0.141c-0.09-0.1-0.141-0.229-0.141-0.359s0.051-0.26,0.141-0.351      c0.199-0.199,0.529-0.189,0.71,0c0.09,0.091,0.149,0.221,0.149,0.351s-0.05,0.26-0.149,0.35      C24.49,21.2,24.359,21.25,24.229,21.25z" fill="#FDCA5C"/></g><g><path d="M7.77,11.75c-0.13,0-0.25-0.05-0.35-0.141C7.319,11.5,7.27,11.37,7.27,11.25      c0-0.13,0.05-0.25,0.141-0.351c0.22-0.199,0.529-0.189,0.72,0c0.09,0.091,0.14,0.221,0.14,0.351s-0.05,0.26-0.14,0.35      C8.03,11.7,7.899,11.75,7.77,11.75z" fill="#FDCA5C"/></g></g><g><g><path d="M20.75,24.729c-0.13,0-0.26-0.05-0.351-0.14c-0.1-0.11-0.149-0.23-0.149-0.36s0.05-0.26,0.14-0.359      c0.2-0.19,0.521-0.181,0.71,0c0.101,0.1,0.15,0.229,0.15,0.359c0,0.12-0.05,0.25-0.141,0.351      C21.01,24.68,20.88,24.729,20.75,24.729z" fill="#FDCA5C"/></g><g><path d="M11.25,8.27c-0.13,0-0.26-0.05-0.351-0.149C10.8,8.03,10.75,7.899,10.75,7.77s0.05-0.26,0.149-0.35      c0.181-0.19,0.511-0.19,0.7-0.01c0.101,0.1,0.15,0.229,0.15,0.359S11.7,8.03,11.6,8.12C11.5,8.22,11.38,8.27,11.25,8.27z" fill="#FDCA5C"/></g></g><g><g><path d="M16,26c-0.13,0-0.25-0.05-0.351-0.141C15.55,25.75,15.5,25.63,15.5,25.5s0.05-0.26,0.14-0.351      c0.21-0.199,0.53-0.189,0.71,0C16.45,25.24,16.5,25.37,16.5,25.5s-0.05,0.26-0.15,0.35C16.26,25.95,16.13,26,16,26z" fill="#FDCA5C"/></g><g><path d="M16,7c-0.13,0-0.25-0.05-0.351-0.141C15.55,6.76,15.5,6.63,15.5,6.5c0-0.141,0.05-0.26,0.14-0.351      c0.21-0.199,0.53-0.189,0.71,0C16.45,6.24,16.5,6.37,16.5,6.5s-0.05,0.26-0.141,0.35C16.26,6.95,16.13,7,16,7z" fill="#FDCA5C"/></g></g></g><g><g><path d="M22.364,9.636c-0.195-0.195-0.512-0.195-0.707,0l-5.413,5.413c0.351,0.091,0.616,0.356,0.707,0.707     l5.413-5.413C22.56,10.147,22.56,9.831,22.364,9.636z" fill="#FDCA5C"/><path d="M15.756,15.049l-6.12-6.12c-0.195-0.195-0.512-0.195-0.707,0s-0.195,0.512,0,0.707l6.12,6.12     C15.14,15.405,15.405,15.14,15.756,15.049z" fill="#FDCA5C"/></g><path d="M16,17.5c-0.827,0-1.5-0.673-1.5-1.5s0.673-1.5,1.5-1.5s1.5,0.673,1.5,1.5S16.827,17.5,16,17.5z M16,15.5    c-0.275,0-0.5,0.225-0.5,0.5s0.225,0.5,0.5,0.5s0.5-0.225,0.5-0.5S16.275,15.5,16,15.5z" fill="#FDCA5C"/></g><g><g><g><g><g><g><g><path d="M7.5,4.5C7.5,4.775,7.275,5,7,5l0,0C6.725,5,6.5,4.775,6.5,4.5l0,0C6.5,4.225,6.725,4,7,4l0,0          C7.275,4,7.5,4.225,7.5,4.5L7.5,4.5z" fill="#FDCA5C"/></g></g></g></g></g></g></g></g></svg>