<svg height="32" width="32" xmlns="http://www.w3.org/2000/svg"><path d="M16 31C7.729 31 1 24.271 1 16c0-3.646 1.323-7.16 3.727-9.895a.502.502 0 01.706-.045.502.502 0 01.046.706A13.972 13.972 0 002 16c0 7.72 6.28 14 14 14s14-6.28 14-14S23.72 2 16 2c-2.504 0-4.96.668-7.103 1.933a.5.5 0 11-.507-.862A14.979 14.979 0 0116 1c8.271 0 15 6.729 15 15s-6.729 15-15 15z" fill="#FDCA5C"/><path d="M16 28.5C9.107 28.5 3.5 22.893 3.5 16S9.107 3.5 16 3.5 28.5 9.107 28.5 16 22.893 28.5 16 28.5zm0-24C9.659 4.5 4.5 9.659 4.5 16S9.659 27.5 16 27.5 27.5 22.341 27.5 16 22.341 4.5 16 4.5z" fill="#FDCA5C"/><path d="M20.75 8.27c-.13 0-.26-.05-.351-.14-.1-.1-.149-.23-.149-.36s.05-.26.149-.35c.19-.19.521-.19.7 0 .101.09.15.22.15.35s-.049.26-.149.35a.47.47 0 01-.35.15zM11.25 24.729c-.13 0-.26-.06-.351-.149a.503.503 0 01-.149-.351c0-.13.05-.26.14-.359.19-.181.53-.181.71 0 .101.1.15.229.15.359 0 .12-.05.25-.141.351a.548.548 0 01-.359.149zM24.229 11.75a.496.496 0 01-.5-.5c0-.13.051-.26.141-.351a.506.506 0 01.859.351c0 .13-.05.26-.149.35-.09.1-.221.15-.351.15zM7.77 21.25c-.13 0-.25-.05-.35-.141a.535.535 0 01-.15-.359c0-.13.05-.25.141-.351a.518.518 0 01.72 0c.09.091.14.221.14.351s-.05.26-.14.35a.495.495 0 01-.361.15zM25.5 16.5c-.13 0-.26-.05-.351-.15-.099-.09-.149-.22-.149-.35s.05-.26.149-.351a.513.513 0 01.7-.01.508.508 0 01.01.711.504.504 0 01-.359.15zM6.5 16.5c-.13 0-.26-.05-.351-.15C6.05 16.26 6 16.13 6 16s.05-.26.149-.351a.513.513 0 01.7-.01.508.508 0 01.01.711.504.504 0 01-.359.15z" fill="#FDCA5C"/><g><path d="M24.229 21.25c-.13 0-.26-.05-.359-.141-.09-.1-.141-.229-.141-.359s.051-.26.141-.351a.506.506 0 01.859.351c0 .13-.05.26-.149.35-.09.1-.221.15-.351.15zM7.77 11.75c-.13 0-.25-.05-.35-.141a.535.535 0 01-.15-.359c0-.13.05-.25.141-.351a.518.518 0 01.72 0c.09.091.14.221.14.351s-.05.26-.14.35a.513.513 0 01-.361.15z" fill="#FDCA5C"/></g><g><path d="M20.75 24.729c-.13 0-.26-.05-.351-.14-.1-.11-.149-.23-.149-.36s.05-.26.14-.359c.2-.19.521-.181.71 0 .101.1.15.229.15.359 0 .12-.05.25-.141.351a.502.502 0 01-.359.149zM11.25 8.27c-.13 0-.26-.05-.351-.149-.099-.091-.149-.222-.149-.351s.05-.26.149-.35a.51.51 0 01.7-.01c.101.1.15.229.15.359s-.049.261-.149.351c-.1.1-.22.15-.35.15z" fill="#FDCA5C"/></g><g><path d="M16 26c-.13 0-.25-.05-.351-.141-.099-.109-.149-.229-.149-.359s.05-.26.14-.351a.506.506 0 01.71 0c.1.091.15.221.15.351s-.05.26-.15.35A.47.47 0 0116 26zM16 7c-.13 0-.25-.05-.351-.141a.507.507 0 01-.009-.71.506.506 0 01.71 0A.496.496 0 0116 7z" fill="#FDCA5C"/></g><g fill="#FDCA5C"><path d="M22.364 9.636a.5.5 0 00-.707 0l-5.413 5.413a.975.975 0 01.707.707l5.413-5.413a.499.499 0 000-.707zM15.756 15.049l-6.12-6.12a.5.5 0 00-.707.707l6.12 6.12a.975.975 0 01.707-.707z"/><path d="M16 17.5c-.827 0-1.5-.673-1.5-1.5s.673-1.5 1.5-1.5 1.5.673 1.5 1.5-.673 1.5-1.5 1.5zm0-2c-.275 0-.5.225-.5.5s.225.5.5.5.5-.225.5-.5-.225-.5-.5-.5z"/></g><g><path d="M7.5 4.5c0 .275-.225.5-.5.5a.501.501 0 01-.5-.5c0-.275.225-.5.5-.5s.5.225.5.5z" fill="#FDCA5C"/></g></svg>